# xmcd
#
# Track frame offsets:
#	150
#	39937
#	67052
#	98965
#	123992
#	155980
#	199868
#
# Disc length: 3164 seconds
#
# Revision: 1
# Processed by: cddbd v1.5.2PL0 Copyright (c) Steve Scherf et al.
# Submitted via: audiograbber 1.83.01
#
DISCID=620c5a07
DTITLE=Grateful Dead - 93-03-28 Knickerbocker Arena, Albany NY
DYEAR=1900
DGENRE=
TTITLE0=Mississippi Half-Step
TTITLE1=Walkin Blues
TTITLE2=So Many Roads
TTITLE3=When I Paint My Masterpiece
TTITLE4=High Time
TTITLE5=Eternity
TTITLE6=Deal
EXTD=
EXTT0=
EXTT1=
EXTT2=
EXTT3=
EXTT4=
EXTT5=
EXTT6=
PLAYORDER=
